<?xml version="1.0" encoding="utf-8"?><svg xmlns="http://www.w3.org/2000/svg" xmlns:xlink="http://www.w3.org/1999/xlink"><symbol viewBox="0 0 55 55" id="alarm" xmlns="http://www.w3.org/2000/svg"><path d="M51.376 45.291C46.716 40.66 44.354 35.179 44.354 29v-8.994c.043-6.857-4.568-11.405-8.53-13.216a20.104 20.104 0 00-3.494-1.216V5c0-2.757-2.243-5-5-5s-5 2.243-5 5v.661a19.8 19.8 0 00-3.146 1.138C14.805 8.817 10.369 13.681 10.329 20v9c0 6.388-2.256 11.869-6.705 16.291a1.002 1.002 0 00.535 1.695l9.491 1.639c1.768.305 3.396.555 4.945.761C20.341 52.806 23.768 55 27.512 55c3.745 0 7.173-2.196 8.917-5.618 1.543-.205 3.163-.454 4.921-.758l9.49-1.639a1 1 0 00.536-1.694zM24.329 5c0-1.654 1.346-3 3-3s3 1.346 3 3v.182a19.883 19.883 0 00-6 .047V5zm3.183 48c-2.532 0-4.898-1.258-6.417-3.315 2.235.23 4.321.346 6.406.346 2.093 0 4.186-.116 6.43-.349C32.411 51.741 30.044 53 27.512 53zm13.498-6.347c-1.919.331-3.678.6-5.34.812h-.006c-.732.093-1.444.174-2.141.244l-.022.002c-.637.064-1.26.115-1.876.16l-.35.024a58.02 58.02 0 01-1.587.083c-.108.004-.216.01-.324.013a55.413 55.413 0 01-5.613-.095l-.373-.025c-.6-.043-1.207-.094-1.828-.155l-.064-.006a80.764 80.764 0 01-2.126-.242h-.009a121.441 121.441 0 01-5.361-.814L6.329 45.33c3.983-4.554 6-10.038 6-16.33v-8.994c.034-5.435 3.888-9.637 7.691-11.391a17.877 17.877 0 013.497-1.183c.01-.002.021-.001.031-.003a18.18 18.18 0 017.58-.068c.013.003.026-.003.039-.001 1.304.272 2.588.684 3.825 1.249 3.689 1.687 7.396 5.861 7.361 11.392v9c0 6.033 2.175 11.643 6.313 16.331l-7.656 1.321z"/><path d="M33.746 11.338c-3.875-1.771-8.62-1.773-12.469.002-2.195 1.012-5.918 3.973-5.948 8.654A1 1 0 0016.323 21h.006a1 1 0 001-.994c.023-3.677 3.019-6.035 4.785-6.85 3.331-1.537 7.446-1.533 10.799 0a1 1 0 00.833-1.818z"/></symbol><symbol viewBox="0 0 431.972 431.972" id="bookmark-white" xmlns="http://www.w3.org/2000/svg"><path d="M393.146 14.279c-3.713-5.333-8.713-9.233-14.989-11.707A31.606 31.606 0 00365.592.004V0H66.378c-4.377 0-8.562.857-12.56 2.568-6.28 2.472-11.278 6.377-14.989 11.707-3.71 5.33-5.568 11.228-5.568 17.701v368.019c0 6.475 1.858 12.371 5.568 17.706 3.711 5.329 8.709 9.233 14.989 11.704a31.577 31.577 0 0012.56 2.566c8.949 0 16.844-3.142 23.698-9.418l125.91-121.062 125.91 121.065c6.663 6.081 14.562 9.127 23.695 9.127 4.76 0 8.948-.756 12.565-2.279 6.276-2.471 11.276-6.375 14.989-11.711 3.71-5.328 5.564-11.225 5.564-17.699V31.98c.001-6.473-1.857-12.371-5.563-17.701zm-30.98 376.86L241.397 275.224l-25.411-24.264-25.409 24.264L69.809 391.139V36.549h292.357v354.59z"/></symbol><symbol viewBox="0 0 60 60" id="chat" xmlns="http://www.w3.org/2000/svg"><path d="M10 25.465h13a1 1 0 100-2H10a1 1 0 100 2zm26 4H10a1 1 0 100 2h26a1 1 0 100-2zm0 6H10a1 1 0 100 2h26a1 1 0 100-2z"/><path d="M54.072 2.535l-34.142-.07c-3.27 0-5.93 2.66-5.93 5.93v5.124l-8.07.017c-3.27 0-5.93 2.66-5.93 5.93v21.141c0 3.27 2.66 5.929 5.93 5.929H12v10a1 1 0 001.74.673l9.704-10.675 16.626-.068c3.27 0 5.93-2.66 5.93-5.929v-.113l5.26 5.786a1.002 1.002 0 001.74-.673v-10h1.07c3.27 0 5.93-2.66 5.93-5.929V8.465a5.937 5.937 0 00-5.928-5.93zM44 40.536a3.934 3.934 0 01-3.934 3.929l-17.07.07a1 1 0 00-.736.327L14 53.949v-8.414a1 1 0 00-1-1H5.93A3.934 3.934 0 012 40.606V19.465a3.935 3.935 0 013.932-3.93L15 15.516h.002l25.068-.052a3.934 3.934 0 013.93 3.93v21.142zm14-10.93a3.934 3.934 0 01-3.93 3.929H52a1 1 0 00-1 1v8.414l-5-5.5V19.395c0-3.27-2.66-5.93-5.932-5.93L16 13.514v-5.12a3.934 3.934 0 013.928-3.93l34.141.07h.002a3.934 3.934 0 013.93 3.93v21.142z"/></symbol><symbol viewBox="0 0 59 59" id="compass" xmlns="http://www.w3.org/2000/svg"><path d="M30.5 9.025V7.858c1.721-.447 3-1.999 3-3.858 0-2.206-1.794-4-4-4s-4 1.794-4 4c0 1.859 1.279 3.411 3 3.858v1.167C15.177 9.553 4.5 20.55 4.5 34c0 13.785 11.215 25 25 25s25-11.215 25-25c0-13.45-10.677-24.447-24-24.975zM27.5 4c0-1.103.897-2 2-2s2 .897 2 2-.897 2-2 2-2-.897-2-2zm2 53c-12.683 0-23-10.317-23-23s10.317-23 23-23 23 10.317 23 23-10.317 23-23 23z"/><path d="M41.78 20.378l-16.97 8.485c-.026.013-.041.04-.066.056-.068.041-.12.093-.177.149a.933.933 0 00-.149.177c-.015.025-.042.04-.056.066l-8.485 16.97a1 1 0 001.342 1.342l16.97-8.485c.026-.013.041-.04.066-.056.068-.041.12-.093.177-.149a.933.933 0 00.149-.177c.015-.025.042-.04.056-.066l8.485-16.97a1 1 0 00-1.342-1.342zM19.009 44.491l6.523-13.045 6.521 6.521-13.044 6.524zm14.459-7.937l-6.521-6.521 13.045-6.523-6.524 13.044z"/></symbol><symbol viewBox="0 0 569 569.549" id="customer-support" xmlns="http://www.w3.org/2000/svg"><path d="M1.527 52.246l37.985 66.469a9.488 9.488 0 005.933 4.5l35.438 8.86 121.543 121.542 13.43-13.426L92.41 116.75a9.47 9.47 0 00-4.406-2.5l-34.05-8.543-32.34-56.625L49.34 21.355l56.648 32.372 8.547 34.05a9.47 9.47 0 002.496 4.414l123.446 123.446 13.425-13.43L132.36 80.664l-8.86-35.418a9.511 9.511 0 00-4.5-5.945L52.527 1.32a9.496 9.496 0 00-11.394 1.527L3.153 40.832a9.495 9.495 0 00-1.626 11.414zm394.786 134.899L187.41 396.05l-13.43-13.43 208.907-208.9zM150.848 403.441a9.493 9.493 0 00-8.141-4.605H85.734a9.486 9.486 0 00-8.136 4.605l-28.489 47.477a9.495 9.495 0 000 9.781l28.489 47.477a9.495 9.495 0 008.136 4.605h56.973a9.501 9.501 0 008.14-4.605l28.485-47.477a9.495 9.495 0 000-9.781zm-13.512 90.348H91.109L68.32 455.81l22.79-37.985h46.226l22.789 37.985zm0 0"/><path d="M456.063 227.914c62.714.211 113.73-50.46 113.94-113.176a113.589 113.589 0 00-3.487-28.308c-1.266-5.09-6.418-8.188-11.508-6.922a9.522 9.522 0 00-4.414 2.496l-59.11 59.07-46.898-15.629-15.64-46.886 59.109-59.121a9.495 9.495 0 00-4.453-15.934c-60.82-15.402-122.606 21.414-138.008 82.23a113.327 113.327 0 00-3.477 28.23c.024 7.477.793 14.93 2.309 22.25L136.469 344.169a112.023 112.023 0 00-22.246-2.309C51.289 341.86.273 392.875.273 455.81c0 62.93 51.016 113.945 113.95 113.945 62.93 0 113.945-51.016 113.945-113.945a111.742 111.742 0 00-2.309-22.25l49.786-49.786 21.773 21.774a9.499 9.499 0 0013.43 0l4.746-4.75c4.164-4.137 10.894-4.137 15.058 0 4.16 4.148 4.168 10.883.02 15.043l-.02.02-4.746 4.745c-3.707 3.707-3.707 9.72 0 13.426L439.18 547.305c29.793 30.066 78.316 30.285 108.382.492 30.063-29.793 30.282-78.32.489-108.383-.16-.164-.324-.328-.489-.492L434.29 325.652c-3.707-3.707-9.719-3.707-13.426 0l-4.746 4.746c-4.168 4.141-10.894 4.141-15.062 0-4.157-4.148-4.168-10.882-.02-15.039.008-.007.016-.011.02-.02l4.75-4.75c3.707-3.706 3.707-9.718 0-13.425l-21.774-21.773 49.785-49.786a111.733 111.733 0 0022.247 2.31zm37.308 322.852a57.7 57.7 0 01-20.195-3.684l74.16-74.164c11.191 29.77-3.867 62.973-33.637 74.164a57.6 57.6 0 01-20.328 3.684zM385.797 303.973c-10.516 12.543-8.867 31.238 3.676 41.75 11.023 9.238 27.09 9.23 38.101-.028l106.563 106.657c1.156 1.16 2.238 2.382 3.285 3.625l-81.188 81.187a55.28 55.28 0 01-3.629-3.285L345.961 427.227c10.516-12.543 8.867-31.239-3.676-41.75-11.023-9.243-27.094-9.23-38.105.023l-15.192-15.191 81.614-81.493zm38.344-95.504L208.73 423.836a9.51 9.51 0 00-2.508 9.023c13.027 51.16-17.887 103.196-69.051 116.22-51.16 13.026-103.195-17.888-116.223-69.052-13.023-51.16 17.89-103.195 69.055-116.222a95.649 95.649 0 0147.168 0 9.58 9.58 0 009.023-2.504l215.36-215.371a9.49 9.49 0 002.496-9.02c-12.938-50.562 17.562-102.039 68.125-114.98a94.55 94.55 0 0129.281-2.766l-50.09 50.11a9.487 9.487 0 00-2.297 9.71l18.989 56.977a9.504 9.504 0 006.011 6l56.977 18.992a9.496 9.496 0 009.71-2.289l50.09-50.09a86.32 86.32 0 01.173 5.39c.265 52.177-41.813 94.688-93.989 94.958a94.602 94.602 0 01-23.918-2.953 9.504 9.504 0 00-9.023 2.496h.05zm0 0"/><path d="M491.273 477.578l-13.43 13.43-94.952-94.953 13.425-13.43zm0 0"/></symbol><symbol viewBox="0 0 510 510" id="electronics" xmlns="http://www.w3.org/2000/svg"><path d="M495 357.751h-21.75V155.639c0-28.21-22.95-51.16-51.16-51.16h-33.46v-6.371c0-37.562-30.559-68.12-68.121-68.12l-131.019.001c-37.562 0-68.12 30.559-68.12 68.12v6.37H87.91c-28.21 0-51.16 22.95-51.16 51.16v202.112H15c-8.284 0-15 6.716-15 15v57.711c0 27.322 22.228 49.55 49.549 49.55H460.45c27.322 0 49.549-22.228 49.549-49.55v-57.711c.001-8.284-6.715-15-14.999-15zm-294.568 30h109.137v12.02a4.114 4.114 0 01-4.11 4.11H204.542a4.114 4.114 0 01-4.11-4.11zm58.666-289.643a67.743 67.743 0 00-11.69-38.119h73.101c21.02 0 38.12 17.101 38.12 38.12v157.73l-39.503-37.058c-5.771-5.414-14.754-5.415-20.525 0l-39.503 37.058V98.108zm-107.728.001c0-21.02 17.101-38.12 38.12-38.12 24.516 0 39.608 18.595 39.608 38.119v6.361H151.37zm-84.62 57.53c0-11.668 9.492-21.16 21.16-21.16h141.188v155.999c0 13.218 15.785 19.831 25.263 10.939l54.503-51.129 54.503 51.129c9.556 8.965 25.263 2.171 25.263-10.939V134.479h33.46c11.668 0 21.16 9.492 21.16 21.16v202.11H66.75zM480 430.462c0 10.78-8.77 19.55-19.549 19.55H49.549c-10.779 0-19.549-8.77-19.549-19.55v-42.711h140.432v12.02c0 18.809 15.302 34.11 34.11 34.11h100.916c18.809 0 34.11-15.302 34.11-34.11v-12.02H480z"/></symbol><symbol viewBox="0 0 350 350" id="man-user" xmlns="http://www.w3.org/2000/svg"><path d="M175 171.173c38.914 0 70.463-38.318 70.463-85.586C245.463 38.318 235.105 0 175 0s-70.465 38.318-70.465 85.587c0 47.268 31.549 85.586 70.465 85.586zM41.909 301.853c-.012-2.882-.024-.812 0 0zm266.176 2.251c.038-.789.013-5.474 0 0z"/><path d="M307.935 298.397c-1.305-82.342-12.059-105.805-94.352-120.657 0 0-11.584 14.761-38.584 14.761s-38.586-14.761-38.586-14.761C55.018 192.43 43.61 215.545 42.11 295.722c-.123 6.547-.18 6.891-.202 6.131.005 1.424.011 4.058.011 8.651 0 0 19.592 39.496 133.08 39.496 113.486 0 133.08-39.496 133.08-39.496 0-2.951.002-5.003.005-6.399-.022.47-.066-.441-.149-5.708z"/></symbol><symbol viewBox="-41 0 512 512.001" id="martini" xmlns="http://www.w3.org/2000/svg"><path d="M404.453 0c-13.644 0-24.742 11.098-24.742 24.742 0 4.067.992 7.903 2.738 11.293L323.555 94.93H133.219a7.573 7.573 0 100 15.145h175.187L276.09 142.39H51.934l-27.836-32.317h73.777a7.573 7.573 0 100-15.144h-90.3A7.566 7.566 0 00.69 99.348a7.568 7.568 0 001.145 8.097l173.883 201.86v36.132c0 4.18 3.39 7.575 7.574 7.575a7.579 7.579 0 007.574-7.574v-31.372h19.184v131.485c0 10.535 5.84 20.031 15.246 24.785l52.457 26.516H123.168l52.457-26.516c9.398-4.754 15.242-14.25 15.242-24.785v-64.895a7.574 7.574 0 00-7.574-7.574 7.574 7.574 0 00-7.574 7.574v64.895c0 4.789-2.657 9.105-6.93 11.265l-80.812 40.852A7.575 7.575 0 0091.395 512h218.128a7.572 7.572 0 007.368-5.816 7.57 7.57 0 00-3.95-8.516l-80.812-40.852a12.563 12.563 0 01-6.93-11.265V309.305l62.582-72.649a7.574 7.574 0 10-11.476-9.886l-62.149 72.148h-27.394L64.98 157.539h195.961l-19.777 19.777c-9.004-6.855-19.703-10.687-30.258-10.687-10.433 0-19.972 3.793-26.863 10.684-14.395 14.39-13.965 38.757.008 57.117l-19.496 19.496c-2.684 2.683-2.946 7.094-.578 10.066 2.78 3.488 8.132 3.801 11.289.645l19.492-19.492c9.004 6.855 19.703 10.69 30.262 10.69 10.43 0 19.968-3.796 26.859-10.687 14.394-14.39 13.965-38.753-.004-57.117l30.492-30.492h53.57l-36.19 42.016c-2.485 2.883-2.407 7.308.187 10.093 3.035 3.262 8.382 3.168 11.289-.207l87.859-101.996a7.575 7.575 0 00-5.738-12.52h-48.367l48.183-48.179a24.567 24.567 0 0011.293 2.738c13.64 0 24.738-11.101 24.738-24.742C429.191 11.098 418.094 0 404.453 0zM241.172 234.438c-5.168 5.164-11.637 6.25-16.152 6.25-8.895 0-18.086-4.086-25.227-11.208-.012-.011-.023-.027-.04-.042a.428.428 0 00-.042-.04c-12.758-12.796-14.988-31.343-4.957-41.375 5.164-5.164 11.633-6.25 16.148-6.25 8.91 0 18.121 4.102 25.266 11.25 12.8 12.797 15.043 31.375 5.004 41.415zm135.652-124.364l-27.84 32.317h-51.468l32.316-32.317zm27.63-75.738c-5.294 0-9.599-4.305-9.599-9.594 0-5.293 4.305-9.594 9.598-9.594 5.29 0 9.594 4.301 9.594 9.594 0 5.29-4.305 9.594-9.594 9.594zm0 0"/></symbol><symbol viewBox="0 0 124 124" id="menu" xmlns="http://www.w3.org/2000/svg"><path d="M112 6H12C5.4 6 0 11.4 0 18s5.4 12 12 12h100c6.6 0 12-5.4 12-12s-5.4-12-12-12zm0 44H12C5.4 50 0 55.4 0 62s5.4 12 12 12h100c6.6 0 12-5.4 12-12s-5.4-12-12-12zm0 44H12c-6.6 0-12 5.4-12 12s5.4 12 12 12h100c6.6 0 12-5.4 12-12s-5.4-12-12-12z"/></symbol><symbol viewBox="0 0 60 60" id="more" xmlns="http://www.w3.org/2000/svg"><path d="M30 16c4.411 0 8-3.589 8-8s-3.589-8-8-8-8 3.589-8 8 3.589 8 8 8zm0-14c3.309 0 6 2.691 6 6s-2.691 6-6 6-6-2.691-6-6 2.691-6 6-6zm0 42c-4.411 0-8 3.589-8 8s3.589 8 8 8 8-3.589 8-8-3.589-8-8-8zm0 14c-3.309 0-6-2.691-6-6s2.691-6 6-6 6 2.691 6 6-2.691 6-6 6zm0-36c-4.411 0-8 3.589-8 8s3.589 8 8 8 8-3.589 8-8-3.589-8-8-8zm0 14c-3.309 0-6-2.691-6-6s2.691-6 6-6 6 2.691 6 6-2.691 6-6 6z"/></symbol><symbol viewBox="0 0 60 60" id="more-2" xmlns="http://www.w3.org/2000/svg"><path d="M8 22c-4.411 0-8 3.589-8 8s3.589 8 8 8 8-3.589 8-8-3.589-8-8-8zm44 0c-4.411 0-8 3.589-8 8s3.589 8 8 8 8-3.589 8-8-3.589-8-8-8zm-22 0c-4.411 0-8 3.589-8 8s3.589 8 8 8 8-3.589 8-8-3.589-8-8-8z"/></symbol><symbol viewBox="0 0 512 512" id="parking" xmlns="http://www.w3.org/2000/svg"><path d="M452 0H60C26.916 0 0 26.916 0 60v392c0 33.084 26.916 60 60 60h392c33.084 0 60-26.916 60-60V60c0-33.084-26.916-60-60-60zm20 452c0 11.028-8.972 20-20 20H60c-11.028 0-20-8.972-20-20V60c0-11.028 8.972-20 20-20h392c11.028 0 20 8.972 20 20v392z"/><path d="M286 100H146v312h40V300h100c55.14 0 100-44.86 100-100s-44.86-100-100-100zm0 160H186V140h100c33.084 0 60 26.916 60 60s-26.916 60-60 60z"/></symbol><symbol viewBox="0 0 61.168 61.168" id="placeholder" xmlns="http://www.w3.org/2000/svg"><path d="M30.938 26.584c3.859 0 7-3.141 7-7s-3.141-7-7-7-7 3.141-7 7 3.14 7 7 7zm0-12c2.757 0 5 2.243 5 5s-2.243 5-5 5-5-2.243-5-5 2.243-5 5-5z"/><path d="M50.216 37.584h-7.161l3.047-4.4c5.755-7.671 4.922-20.28-1.781-26.982A19.049 19.049 0 0030.761.585a19.052 19.052 0 00-13.56 5.617c-6.703 6.702-7.536 19.312-1.804 26.952l3.068 4.431h-7.513L0 60.584h61.168l-10.952-23zm-33.196-5.6c-5.199-6.933-4.454-18.32 1.596-24.369 3.244-3.244 7.558-5.031 12.146-5.031s8.901 1.787 12.146 5.031c6.05 6.049 6.795 17.437 1.573 24.399l-13.72 19.813-9.863-14.243-3.878-5.6zm-4.804 7.6h7.634l10.911 15.757 10.91-15.757h7.281l9.048 19H3.168l9.048-19z"/></symbol><symbol viewBox="0 0 489 489" id="previous" xmlns="http://www.w3.org/2000/svg"><path d="M429.4 255.033c-35.4-43.1-102.1-94.4-219.7-98.8v-79.8c0-4.7-2.7-9.1-7-11.1s-9.4-1.4-13 1.6L4.5 219.633c-2.8 2.3-4.5 5.8-4.5 9.4 0 3.7 1.6 7.1 4.4 9.4l185.2 153.3c3.7 3 8.7 3.7 13 1.6 4.3-2 7-6.3 7-11.1v-79.5c76.8.3 194.2 6 256.5 115.9 2.2 3.9 6.3 6.2 10.7 6.2 1 0 2.1-.1 3.1-.4 5.4-1.4 9.1-6.3 9.1-11.8.1-41.1-15.6-104-59.6-157.6zm-232 23.2c-3.3 0-6.4 1.3-8.7 3.6s-3.6 5.4-3.6 8.7v65.7l-153.5-127.1 153.6-126.7v65.7c0 6.7 5.4 12.2 12.1 12.3 176 1.7 241.6 109 260.7 184.4-75.8-86.5-189.3-86.6-260.6-86.6z"/></symbol><symbol viewBox="0 0 489.773 489.773" id="restaurant" xmlns="http://www.w3.org/2000/svg"><path d="M155.183 305.646a74.353 74.353 0 01-6.238.265c-5.693 0-11.23-.826-16.652-2.081L6.834 429.293c-6.158 6.149-6.158 16.137 0 22.287l32.47 32.478c6.158 6.15 16.135 6.15 22.276 0l150.785-150.757-27.944-30.15-29.238 2.495zm330.162-200.997c-5.888-5.885-15.417-5.885-21.304 0l-81.303 81.301c-7.693 7.685-20.154 7.685-27.847 0-7.659-7.679-7.659-20.13 0-27.807l80.901-80.884c6.112-6.118 6.112-16.036 0-22.168-6.141-6.11-16.055-6.11-22.167 0l-80.868 80.876c-7.693 7.693-20.14 7.693-27.833 0-7.677-7.676-7.677-20.136 0-27.806l81.286-81.293c5.904-5.894 5.904-15.441 0-21.343-5.888-5.895-15.434-5.895-21.338 0l-91.458 91.463c-21.989 22.003-28.935 52.888-21.816 80.991l61.31 61.314c28.101 7.093 59.001.144 80.965-21.841l91.471-91.458c5.905-5.894 5.905-15.451.001-21.345z"/><path d="M41.093 13.791a16.592 16.592 0 00-14.49-4.623 16.58 16.58 0 00-12.172 9.133c-26.79 55.373-15.594 121.631 27.894 165.121l77.801 77.791a40.718 40.718 0 0028.819 11.939c1.151 0 2.305-.048 3.456-.143l45.171-3.855 196.971 212.489a16.604 16.604 0 0011.855 5.31h.288c4.412 0 8.636-1.743 11.771-4.855l33.734-33.741a16.563 16.563 0 004.859-11.73c0-4.398-1.742-8.622-4.846-11.732L41.093 13.791z"/></symbol><symbol viewBox="0 0 56.966 56.966" id="search" xmlns="http://www.w3.org/2000/svg"><path d="M55.146 51.887L41.588 37.786A22.926 22.926 0 0046.984 23c0-12.682-10.318-23-23-23s-23 10.318-23 23 10.318 23 23 23c4.761 0 9.298-1.436 13.177-4.162l13.661 14.208c.571.593 1.339.92 2.162.92.779 0 1.518-.297 2.079-.837a3.004 3.004 0 00.083-4.242zM23.984 6c9.374 0 17 7.626 17 17s-7.626 17-17 17-17-7.626-17-17 7.626-17 17-17z"/></symbol><symbol viewBox="0 0 512.001 512.001" id="share" xmlns="http://www.w3.org/2000/svg"><path d="M404.99 344.077c-26.743 0-50.588 12.583-65.974 32.124l-154.093-88.964a83.477 83.477 0 006.049-31.236 83.504 83.504 0 00-6.049-31.236l154.093-88.964c15.387 19.54 39.231 32.124 65.974 32.124 46.297 0 83.962-37.666 83.962-83.962C488.952 37.666 451.288 0 404.99 0s-83.962 37.665-83.962 83.961a83.487 83.487 0 006.052 31.24l-154.091 88.964c-15.387-19.542-39.233-32.127-65.978-32.127-46.297 0-83.962 37.666-83.962 83.962 0 46.296 37.665 83.962 83.962 83.962 26.745 0 50.591-12.585 65.978-32.127L327.08 396.8a83.484 83.484 0 00-6.052 31.24c0 46.297 37.665 83.961 83.962 83.961s83.962-37.665 83.962-83.961-37.664-83.963-83.962-83.963zm0-320.269c33.169 0 60.155 26.985 60.155 60.153 0 33.169-26.985 60.155-60.155 60.155-33.169 0-60.155-26.986-60.155-60.155.001-33.169 26.987-60.153 60.155-60.153zM107.011 316.155c-33.169 0-60.155-26.986-60.155-60.155s26.985-60.155 60.155-60.155c33.169 0 60.155 26.986 60.155 60.155s-26.986 60.155-60.155 60.155zM404.99 488.192c-33.169 0-60.155-26.985-60.155-60.153 0-33.169 26.985-60.155 60.155-60.155 33.169 0 60.155 26.986 60.155 60.155s-26.986 60.153-60.155 60.153z"/><path d="M107.011 220.606c-19.516 0-35.394 15.877-35.394 35.394 0 6.573 5.329 11.904 11.904 11.904S95.425 262.573 95.425 256c0-6.389 5.197-11.586 11.586-11.586 6.574 0 11.904-5.331 11.904-11.904 0-6.574-5.33-11.904-11.904-11.904z"/></symbol><symbol viewBox="0 0 941.214 941.214" id="swimming-figure" xmlns="http://www.w3.org/2000/svg"><path d="M119.575 293.47l217.8 28c7.601 19.3 45.9 114.3 53.101 131.3h-.101c-63.1 31.2-126.2 62.3-189.3 93.5 21.9-4 44.1-6 66.4-6 29.2 0 57.8 3.5 85.1 10.4 55.1 14 104.9 36.399 153 58.1 42.9 19.3 83.5 37.601 124 48.101 5.7 1.5 11.2 2.8 16.7 3.899-48-98.3-177.1-363.2-202.6-421.5-12-27.5-28.5-37.7-51.899-40.7l-255.8-32.9c-35.3-4.5-67.6 20.4-72.2 55.7-4.401 35.3 20.499 67.6 55.799 72.1z"/><path d="M16.675 752.87c7.1 5.1 15.2 7.5 23.3 7.5 1.8 0 3.5-.101 5.2-.4 10.6-1.4 20.6-7 27.3-16.3 25.9-36.101 66-64.5 112.7-80.101 26.8-8.899 54.8-13.399 82.3-13.399 99.7 0 185.2 59.6 275.199 93.899 48.2 18.4 98.5 32 153.2 32 23 0 46.8-2.399 71.5-7.899 58.101-12.8 107.9-40.4 143.9-79.101 8.6-9.3 16.399-19.1 23.3-29.6 12.2-18.4 7.1-43.2-11.3-55.4-6.8-4.5-14.4-6.6-22-6.6-13 0-25.7 6.3-33.4 17.9-3.1 4.699-6.5 9.199-10.2 13.6-25 29.8-62.5 51.2-107.5 61.1-41.5 9.101-87.3 6.4-128.199-4.199-43-11.2-84.601-29.9-128.801-49.801-47-21.1-95.5-43-148.099-56.399-25-6.4-51.2-9.5-77.7-9.5-36.1 0-72.8 5.899-107.7 17.5-30.5 10.2-58.8 24.399-84.2 42.3-26.8 18.9-49.7 41.4-68.1 67-1.2 1.7-2.2 3.4-3.1 5.2-8.7 17.3-3.9 39 12.4 50.7z"/><circle cx="740.874" cy="426.169" r="141.1"/></symbol><symbol viewBox="0 0 512 512" id="tick" xmlns="http://www.w3.org/2000/svg"><path d="M504.502 75.496c-9.997-9.998-26.205-9.998-36.204 0L161.594 382.203 43.702 264.311c-9.997-9.998-26.205-9.997-36.204 0-9.998 9.997-9.998 26.205 0 36.203l135.994 135.992c9.994 9.997 26.214 9.99 36.204 0L504.502 111.7c9.998-9.997 9.997-26.206 0-36.204z"/></symbol><symbol viewBox="0 0 24 24" id="time-and-date" xmlns="http://www.w3.org/2000/svg"><path d="M14.68 13.13h-.286c.047-.236.081-.503.087-.8.009-.639-.199-1.192-.603-1.601C13.193 10.035 12.193 10 12 10c-1.34 0-1.34 1.445-1.34 1.92 0 .541-.599 1.083-1.073 1.415A1.237 1.237 0 008.75 13h-1.5C6.561 13 6 13.561 6 14.25v4.5c0 .689.561 1.25 1.25 1.25h1.5c.491 0 .906-.291 1.11-.703.75.32 2.028.703 3.9.703.1-.032 2.403.284 2.744-1.909l.466-2.267a2.302 2.302 0 00-.516-1.872 2.321 2.321 0 00-1.774-.822zM8.5 18.5h-1v-4h1zm6.528-.676c-.136.864-1.161.65-1.269.676-2.273 0-3.484-.635-3.76-.8v-2.849c.543-.31 2.16-1.363 2.16-2.931 0-.186.009-.316.019-.405 1.354.191.59 1.39.525 1.967a.75.75 0 00.636 1.148c.35.075 2.361-.338 2.156.919z"/><path d="M21.25 2H19V.75a.75.75 0 00-1.5 0V2h-11V.75a.75.75 0 00-1.5 0V2H2.75A2.752 2.752 0 000 4.75v16.5A2.752 2.752 0 002.75 24h18.5A2.752 2.752 0 0024 21.25V4.75A2.752 2.752 0 0021.25 2zM2.75 3.5H5v.75a.75.75 0 001.5 0V3.5h11v.75a.75.75 0 001.5 0V3.5h2.25c.689 0 1.25.561 1.25 1.25V7h-21V4.75c0-.689.561-1.25 1.25-1.25zm18.5 19H2.75c-.689 0-1.25-.561-1.25-1.25V8.5h21v12.75c0 .689-.561 1.25-1.25 1.25z"/></symbol><symbol viewBox="0 0 511.996 511.996" id="turn-off" xmlns="http://www.w3.org/2000/svg"><path d="M349.85 62.196c-10.797-4.717-23.373.212-28.09 11.009-4.717 10.797.212 23.373 11.009 28.09 69.412 30.324 115.228 98.977 115.228 176.035 0 106.034-85.972 192-192 192-106.042 0-192-85.958-192-192 0-77.041 45.8-145.694 115.192-176.038 10.795-4.72 15.72-17.298 10.999-28.093-4.72-10.795-17.298-15.72-28.093-10.999C77.306 99.275 21.331 183.181 21.331 277.329c0 129.606 105.061 234.667 234.667 234.667 129.592 0 234.667-105.068 234.667-234.667 0-94.17-55.998-178.08-140.815-215.133z"/><path d="M255.989 234.667c11.782 0 21.333-9.551 21.333-21.333v-192C277.323 9.551 267.771 0 255.989 0c-11.782 0-21.333 9.551-21.333 21.333v192c0 11.782 9.551 21.334 21.333 21.334z"/></symbol><symbol viewBox="0 0 512 512" id="vinyl" xmlns="http://www.w3.org/2000/svg"><path d="M437.008 75.323C388.657 27.073 324.374.5 256 .5S123.343 27.073 74.992 75.323C26.633 123.582 0 187.748 0 256s26.633 132.418 74.992 180.677C123.343 484.927 187.626 511.5 256 511.5s132.657-26.573 181.008-74.823C485.367 388.418 512 324.252 512 256s-26.633-132.418-74.992-180.677zm-21.191 340.118C373.13 458.04 316.373 481.5 256 481.5s-117.13-23.46-159.817-66.059C53.504 372.851 30 316.227 30 256S53.504 139.149 96.183 96.559C138.87 53.96 195.627 30.5 256 30.5s117.13 23.46 159.817 66.059C458.496 139.149 482 195.773 482 256s-23.504 116.851-66.183 159.441z"/><path d="M256 241c-3.95 0-7.82 1.6-10.61 4.39-2.79 2.8-4.39 6.66-4.39 10.61s1.6 7.81 4.39 10.61c2.8 2.79 6.66 4.39 10.61 4.39s7.81-1.6 10.609-4.39c2.79-2.8 4.391-6.66 4.391-10.61s-1.601-7.81-4.391-10.61A15.125 15.125 0 00256 241z"/><path d="M256 151.561c-57.69 0-104.625 46.851-104.625 104.439S198.31 360.439 256 360.439 360.625 313.588 360.625 256 313.69 151.561 256 151.561zm0 178.878c-41.148 0-74.625-33.393-74.625-74.439s33.477-74.439 74.625-74.439 74.625 33.393 74.625 74.439-33.477 74.439-74.625 74.439zm-97.957 59.178c-34.179-25.019-57.312-61.503-65.137-102.732-1.545-8.139-9.399-13.483-17.534-11.94-8.139 1.544-13.484 9.395-11.941 17.534 9.248 48.726 36.556 91.821 76.893 121.346a14.93 14.93 0 008.848 2.897 14.98 14.98 0 0012.115-6.141c4.894-6.685 3.442-16.071-3.244-20.964zm290.525-170.096c-9.248-48.726-36.556-91.821-76.893-121.346-6.684-4.892-16.07-3.441-20.963 3.244-4.894 6.685-3.441 16.071 3.244 20.964 34.179 25.019 57.312 61.503 65.137 102.732 1.366 7.194 7.657 12.206 14.721 12.206.928 0 1.869-.087 2.813-.266 8.14-1.544 13.485-9.395 11.941-17.534z"/></symbol><symbol viewBox="0 0 489.3 489.3" id="wifi" xmlns="http://www.w3.org/2000/svg"><path d="M79.55 229.675c-10.2 10.2-10.2 26.8 0 37.1 10.2 10.2 26.8 10.2 37.1 0 70.6-70.6 185.5-70.6 256.1 0 5.1 5.1 11.8 7.7 18.5 7.7s13.4-2.6 18.5-7.7c10.2-10.2 10.2-26.8 0-37.1-91-91.1-239.2-91.1-330.2 0z"/><path d="M150.35 300.475c-10.2 10.2-10.2 26.8 0 37.1 10.2 10.2 26.8 10.2 37.1 0 31.5-31.6 82.9-31.6 114.4 0 5.1 5.1 11.8 7.7 18.5 7.7s13.4-2.6 18.5-7.7c10.2-10.2 10.2-26.8 0-37-51.9-52.1-136.5-52.1-188.5-.1z"/><circle cx="244.65" cy="394.675" r="34.9"/><path d="M481.65 157.675c-130.7-130.6-343.3-130.6-474 0-10.2 10.2-10.2 26.8 0 37.1 10.2 10.2 26.8 10.2 37.1 0 110.2-110.3 289.6-110.3 399.9 0 5.1 5.1 11.8 7.7 18.5 7.7s13.4-2.6 18.5-7.7c10.2-10.2 10.2-26.8 0-37.1z"/></symbol><symbol viewBox="0 0 392.362 392.362" id="world" xmlns="http://www.w3.org/2000/svg"><path d="M74.832 334.417a6.29 6.29 0 00-.388-.321c-4-3.32-8-6.88-11.68-10.56a6 6 0 00-8.44 0 6 6 0 000 8.48c4 4 8 7.72 12.48 11.32a6 6 0 008.028-8.919zM12.038 156.534a6 6 0 00-7.954 5.122c-1.2 5.48-2.12 11.04-2.8 16.6a6 6 0 005.08 6.72h.76a5.999 5.999 0 005.96-5.28c.64-5.2 1.52-10.44 2.64-15.52a5.999 5.999 0 00-3.686-7.642zm32.966 146.082c-3.08-4.24-6-8.64-8.68-13.12a6 6 0 00-8.224-2.09l-.016.01a6 6 0 00-2.09 8.224l.01.016c2.88 4.8 6 9.52 9.32 14.04a6 6 0 009.68-7.08zm-20.92-37.84c-1.92-4.84-3.68-9.84-5.16-14.88a6 6 0 00-7.6-4.04 6 6 0 00-4 7.44c1.6 5.36 3.44 10.72 5.52 16a6.057 6.057 0 1011.24-4.52zm3.58-149.38a6.002 6.002 0 00-8.06 2.66c-2.52 5-4.84 10.16-6.88 15.4a6 6 0 003.36 7.76 6 6 0 007.788-3.369l.012-.031c1.92-4.88 4-9.72 6.44-14.36a6.002 6.002 0 00-2.66-8.06zM13.286 223.033l-.002-.016c-.64-5.2-1.08-10.48-1.28-15.68a6.004 6.004 0 10-12 .44c0 5.6.64 11.24 1.36 16.8a6 6 0 005.8 5.16h.92a6 6 0 005.202-6.704zM172.464 22.876a6.028 6.028 0 00-6.58-5.42c-5.56.56-11.16 1.36-16.68 2.44a6.026 6.026 0 101.12 12l-.04-.16h1.16c5.16-1 10.4-1.76 15.6-2.28a6.028 6.028 0 005.42-6.58zm-118.74 56.22a6.036 6.036 0 00-8.52.52c-3.68 4.2-7.2 8.64-10.48 13.2a6 6 0 004.84 9.52v.08a5.999 5.999 0 004.88-2.48c3.08-4.24 6.36-8.4 9.8-12.32a6.036 6.036 0 00-.52-8.52zm158.28-60.64c-5.52-.84-11.16-1.44-16.76-1.76a6.01 6.01 0 10-.72 12c5.28.4 10.52.96 15.68 1.76h.92a6.016 6.016 0 10.88-12zM87.799 50.507a6 6 0 00-8.075-1.491c-4.6 3.16-9.12 6.6-13.44 10.16a6.007 6.007 0 00-.78 8.46 6.007 6.007 0 008.46.78c4-3.36 8.24-6.56 12.56-9.52a6 6 0 001.275-8.389zm20.125-4.851c-.02 0-.039-.004-.059-.004-.021 0-.041.004-.061.004h.12z"/><path d="M129.081 31.602a6 6 0 00-8.198-3.905c-5.24 1.92-10.48 4-15.52 6.52a5.999 5.999 0 002.501 11.436 5.998 5.998 0 002.499-.596c4.72-2.24 9.6-4.28 14.52-6.08a6 6 0 004.198-7.375zm72.543 347.074a6.012 6.012 0 00-6.38-5.62c-5.24.4-10.52.52-15.76.36a6.002 6.002 0 10-.32 12h5.08c4 0 8 0 11.76-.36a6.011 6.011 0 005.62-6.38zm157.04-139a6.006 6.006 0 00-7.3 4.34 163.11 163.11 0 01-4.6 15.04 6 6 0 003.64 7.56 6 6 0 007.674-3.622l.006-.018c1.88-5.28 3.52-10.68 4.92-16a6.005 6.005 0 00-4.34-7.3zm7.66-68.7c-.92-5.52-2.08-11.08-3.48-16.48a6 6 0 00-11.6 3.04c1.32 5.04 2.4 10.24 3.28 15.4a6 6 0 005.84 4.92h1a5.999 5.999 0 004.96-6.88z"/><path d="M391.825 102.109a5.817 5.817 0 00-1.141-1.652l-10.6-11.04a5.798 5.798 0 00-5.8-1.44l-19.12 5.8-22.4-23.76 50.28-28a5.838 5.838 0 001.72-9.399l-14.12-14.12a5.84 5.84 0 00-5.8-1.36l-63.72 19.28-21.44-22.76a19.4 19.4 0 00-22.08-5.24h-.36a23.6 23.6 0 00-12.84 12.84 21.62 21.62 0 00-1.28 4.72l-2.44-.84a6.009 6.009 0 00-3.68 11.44c3.08 1 6.16 2.12 9.24 3.28a23.034 23.034 0 003.24 4l22.6 21.44-6.48 21.4c-63.378-45.209-151.405-30.48-196.614 32.898S38.51 271 101.888 316.209s151.405 30.48 196.614-32.898c36.052-50.541 34.794-118.718-3.098-167.894l10.24-18.48 23.76 22.4-5.72 18.92a5.8 5.8 0 001.4 5.92s11.72 11.6 12 12a5.801 5.801 0 008-2.24l15.64-28.68 28.24-15.4a5.84 5.84 0 002.861-7.748zm-298.661 7.907a128.444 128.444 0 0190.92-37.6c2.667 0 5.333.08 8 .24 22.68 20.92 16 40 .8 57.2a280.776 280.776 0 01-28.8 26.56c-14.76 12.56-28.52 24.28-33.72 36-6.16 13.92-1.64 26.52 23.24 37.52 12.44 5.52 19.2 9.8 21.84 13.04.039.047.077.08.116.109a6.634 6.634 0 00-.276.091 49.712 49.712 0 01-18.88 3.24c-30.16 1.28-51.64-18-68.32-32.92-12-10.68-21.96-19.56-32.32-19.64a128.443 128.443 0 0137.4-83.84zm219.96 91.12h.04c-.018 55.75-35.857 105.176-88.84 122.52a41.963 41.963 0 014.92-27.24 99.168 99.168 0 0124-26.4c36.92-30.8 39-48 40.6-61.24 1-8.36 1.76-14.6 18.28-23.68.663 5.321.997 10.678 1 16.04zm-7.44-43.28a127.608 127.608 0 014.4 15.4c-25.16 12.8-26.28 21.92-27.8 34.36-1.36 11.2-3.12 25.84-36.48 53.68a109.405 109.405 0 00-26.8 29.72 53.045 53.045 0 00-6 35.72c-69.389 15.862-138.498-27.53-154.36-96.918a128.893 128.893 0 01-3.16-24.162c6.36 0 14.6 7.56 24.72 16.56 18.32 16.36 41.76 37.24 76.68 36a59.996 59.996 0 0024-4.56 12 12 0 006.64-7.52 11.44 11.44 0 00-2.88-10.44c-3.76-4.6-12-10.04-26.16-16.36-16.92-7.48-20.6-14.76-17.28-22.2 4-9.36 16.88-20 30.56-32a291.17 291.17 0 0030.04-28c16.72-19.04 25.32-39.8 8.32-62.52a127.996 127.996 0 0152 23.64l-9.2 30.36a5.84 5.84 0 001.4 5.92s14.92 14.8 15.4 15.08a5.801 5.801 0 008-2.24l11.64-21.04a128.607 128.607 0 0116.32 31.52zm53.64-44.68l-5.16 2.56a5.76 5.76 0 00-2.64 2.68l-2.56 5.2-9.96 18-2.92-3.2 5.8-19.16a5.8 5.8 0 00-1.88-6.16l-31.56-29.72a5.8 5.8 0 00-8.36.24c-.4.44-28.8 51.6-28.8 51.6l-6.2-6.2 19.36-63.8a5.799 5.799 0 00-1.88-6.2l-25.12-23.64a8.32 8.32 0 01-2.28-9.6 12.562 12.562 0 016.52-6.48h.2a8.321 8.321 0 019.36 2.4l24 25.36a5.8 5.8 0 005.92 1.6l64-19.32 6.2 6.2-50.8 27.92a5.799 5.799 0 00-2.24 8c.24.44 30.84 33 30.84 33a5.8 5.8 0 005.92 1.56l19.24-5.8 3 3-18 9.96zM343.87 281.844a6 6 0 00-8.266 2.213c-2.52 4.6-5.28 9.12-8.24 13.44a6.015 6.015 0 009.84 6.92c3.12-4.64 6.08-9.48 8.8-14.36a6 6 0 00-2.134-8.213zm18.974-87.588a6.001 6.001 0 00-6.08 6.16v.68c0 5.24-.24 10.52-.72 15.76a6 6 0 005.431 6.519l.009.001h.56a6 6 0 006.04-5.56c.52-5.56.76-11.2.76-16.8v-.8a6 6 0 00-6-5.96zm-210.68 176.16c-5.2-.88-10.36-2-15.36-3.52a6.001 6.001 0 10-3.28 11.521c5.36 1.52 10.88 2.84 16.4 4h1.12a6.027 6.027 0 001.12-12.001zm92.837-1.823a6 6 0 00-7.277-3.696v.16c-4.96 1.64-10.08 3.04-15.16 4a6.007 6.007 0 002.64 11.72c5.44-1.24 10.92-2.76 16.24-4.48a6 6 0 003.557-7.704zm-133.997-11.257c-4.76-2.36-9.44-4.92-13.96-7.48a6.006 6.006 0 10-6.08 10.36c4.84 2.84 9.84 5.48 14.92 8a6.013 6.013 0 005.12-10.88zm207.375-38.596a6 6 0 00-8.375.277h.04c-3.6 4-7.4 7.52-11.28 11a6.006 6.006 0 008 8.96c4-3.72 8.24-7.68 12-11.76a6 6 0 00-.385-8.477zM285.275 348.668a6 6 0 00-8.511-1.891v-.16c-4.4 2.8-9 5.44-13.64 8a6.002 6.002 0 005.48 10.68c4.96-2.56 9.88-5.4 14.6-8.4a6 6 0 002.071-8.229z"/></symbol></svg>