<svg id="Capa_1" enable-background="new 0 0 510 510" height="512" viewBox="0 0 510 510" width="512" xmlns="http://www.w3.org/2000/svg"><path d="m495 357.751h-21.75v-202.112c0-28.21-22.95-51.16-51.16-51.16h-33.46v-6.37-.001c0-37.562-30.559-68.12-68.121-68.12-8.671 0-124.917.001-131.019.001-37.562 0-68.12 30.559-68.12 68.12v6.37h-33.46c-28.21 0-51.16 22.95-51.16 51.16v202.112h-21.75c-8.284 0-15 6.716-15 15v57.711c0 27.322 22.228 49.55 49.549 49.55h410.901c27.322 0 49.549-22.228 49.549-49.55v-57.711c.001-8.284-6.715-15-14.999-15zm-294.568 30h109.137v12.02c0 2.267-1.844 4.11-4.11 4.11h-100.917c-2.267 0-4.11-1.844-4.11-4.11zm58.666-289.643c0-14.11-4.314-27.233-11.69-38.119h73.101c21.02 0 38.12 17.101 38.12 38.12v157.73l-39.503-37.058c-5.771-5.414-14.754-5.415-20.525 0l-39.503 37.058c0-4.809 0-152.519 0-157.731zm-107.728.001c0-21.02 17.101-38.12 38.12-38.12 24.516 0 39.608 18.595 39.608 38.119v6.361h-77.728zm-84.62 57.53c0-11.668 9.492-21.16 21.16-21.16h141.188v155.999c0 13.218 15.785 19.831 25.263 10.939l54.503-51.129 54.503 51.129c9.556 8.965 25.263 2.171 25.263-10.939v-155.999h33.46c11.668 0 21.16 9.492 21.16 21.16v202.11h-376.5zm413.25 274.823c0 10.78-8.77 19.55-19.549 19.55h-410.902c-10.779 0-19.549-8.77-19.549-19.55v-42.711h140.432v12.02c0 18.809 15.302 34.11 34.11 34.11h100.916c18.809 0 34.11-15.302 34.11-34.11v-12.02h140.432z"/></svg>