<svg id="regular" height="512" viewBox="0 0 24 24" width="512"
     xmlns="http://www.w3.org/2000/svg">
    <path d="m14.68 13.13h-.286c.047-.236.081-.503.087-.8.009-.639-.199-1.192-.603-1.601-.685-.694-1.685-.729-1.878-.729-1.34 0-1.34 1.445-1.34 1.92 0 .541-.599 1.083-1.073 1.415-.222-.203-.512-.335-.837-.335h-1.5c-.689 0-1.25.561-1.25 1.25v4.5c0 .689.561 1.25 1.25 1.25h1.5c.491 0 .906-.291 1.11-.703.75.32 2.028.703 3.9.703.1-.032 2.403.284 2.744-1.909l.466-2.267c.112-.669-.075-1.352-.516-1.872-.442-.522-1.089-.822-1.774-.822zm-6.18 5.37h-1v-4h1zm6.528-.676c-.136.864-1.161.65-1.269.676-2.273 0-3.484-.635-3.76-.8v-2.849c.543-.31 2.16-1.363 2.16-2.931 0-.186.009-.316.019-.405 1.354.191.59 1.39.525 1.967-.312.499.047 1.148.636 1.148.35.075 2.361-.338 2.156.919z"/>
    <path d="m21.25 2h-2.25v-1.25c0-.414-.336-.75-.75-.75s-.75.336-.75.75v1.25h-11v-1.25c0-.414-.336-.75-.75-.75s-.75.336-.75.75v1.25h-2.25c-1.517 0-2.75 1.233-2.75 2.75v16.5c0 1.517 1.233 2.75 2.75 2.75h18.5c1.517 0 2.75-1.233 2.75-2.75v-16.5c0-1.517-1.233-2.75-2.75-2.75zm-18.5 1.5h2.25v.75c0 .414.336.75.75.75s.75-.336.75-.75v-.75h11v.75c0 .414.336.75.75.75s.75-.336.75-.75v-.75h2.25c.689 0 1.25.561 1.25 1.25v2.25h-21v-2.25c0-.689.561-1.25 1.25-1.25zm18.5 19h-18.5c-.689 0-1.25-.561-1.25-1.25v-12.75h21v12.75c0 .689-.561 1.25-1.25 1.25z"/>
</svg>